<?xml version="1.0" encoding="utf-8"?>
<!-- Generator: Adobe Illustrator 23.0.3, SVG Export Plug-In . SVG Version: 6.00 Build 0)  -->
<svg version="1.1" id="Слой_1" xmlns="http://www.w3.org/2000/svg" xmlns:xlink="http://www.w3.org/1999/xlink" x="0px" y="0px"
	 viewBox="0 0 256.9 143.1" style="enable-background:new 0 0 256.9 143.1;" xml:space="preserve">
<style type="text/css">
	.st0{fill:#FFFFFF;}
	.st1{fill:#FF4339;}
</style>
<g>
	<path class="st0" d="M10.5,118.4c5.2,0,8.3,2,8.3,6.1c0,2.9-1.6,4.6-3.6,5.3c2.3,0.7,4.7,2.5,4.7,6c0,5.5-5.3,6.8-9.5,6.8H0v-24.2
		H10.5z M10.7,132.2H5.2v6.3h5.2c2.3,0,4.4-0.5,4.4-3.1C14.7,132.7,12.8,132.2,10.7,132.2z M10.2,122.7H5.2v5.6h5.2
		c2,0,3.4-0.9,3.4-2.7C13.8,123.4,12.4,122.7,10.2,122.7z"/>
	<path class="st0" d="M24,142.6l9.9-24.2h5.6l9.9,24.2H44l-1.8-4.6H31.1l-1.8,4.6H24z M32.8,133.8h7.8l-3.4-8.7
		c-0.1-0.5-0.4-0.9-0.5-2c-0.1,0.9-0.4,1.4-0.5,2L32.8,133.8z"/>
	<path class="st0" d="M55.6,142.6v-24.2h10c4.7,0,9.6,1.8,9.6,7.9c0,4.2-2.3,6.3-5.3,7.2l7.3,9.1h-6l-6.5-8.5h-3.8v8.5H55.6z
		 M60.8,129.8h5.1c2.2,0,4-0.9,4-3.4s-2-3.4-4-3.4h-5.1V129.8z"/>
	<path class="st0" d="M83.5,142.6v-24.2h4.9l11.3,15.9c-0.1-1-0.1-2.2-0.1-3.4v-12.5h5.2v24.2h-4.9l-11.3-15.9
		c0.1,1,0.1,2.2,0.1,3.4v12.5H83.5z"/>
	<path class="st0" d="M124.1,118.4c5.2,0,8.3,2,8.3,6.1c0,2.9-1.6,4.6-3.6,5.3c2.3,0.7,4.7,2.5,4.7,6c0,5.5-5.3,6.8-9.5,6.8h-10.4
		v-24.2H124.1z M124.1,132.2h-5.5v6.3h5.2c2.3,0,4.4-0.5,4.4-3.1C128.3,132.7,126.2,132.2,124.1,132.2z M123.6,122.7h-4.9v5.6h5.2
		c2,0,3.4-0.9,3.4-2.7C127.3,123.4,125.9,122.7,123.6,122.7z"/>
	<path class="st0" d="M140.8,142.6v-24.2h10c4.7,0,9.6,1.8,9.6,7.9c0,4.2-2.3,6.3-5.3,7.2l7.3,9.1h-6l-6.5-8.5h-3.8v8.5H140.8z
		 M145.8,129.8h5.1c2.2,0,4-0.9,4-3.4s-2-3.4-4-3.4h-5.1V129.8z"/>
	<path class="st0" d="M173.8,118.4v24.2h-5.2v-24.2H173.8z"/>
	<path class="st0" d="M191.5,118.4c8.6,0,12.8,5.1,12.8,12.1c0,7-4,12.1-12.8,12.1h-9.1v-24.2H191.5z M191.5,122.9h-3.9V138h3.9
		c4.8,0,7.4-2.6,7.4-7.6S196.3,122.9,191.5,122.9z"/>
	<path class="st0" d="M223.6,117.8c2.6,0,5.2,0.5,7.4,1.6v4.9c-1.8-1.2-4.3-1.8-6.8-1.8c-4.3,0-8.6,2.3-8.6,7.9
		c0,6.5,4.7,8.1,8.3,8.1c1,0,2-0.1,2.7-0.4v-8.7h4.9v12c-2.5,1-5.2,1.7-7.9,1.7c-6.8,0-13.4-3.6-13.4-12.6
		C210.4,121.7,216.9,117.8,223.6,117.8z"/>
	<path class="st0" d="M256.6,118.4v4.6h-11.8v5.2h10.8v4.6h-10.8v5.5h12.1v4.6h-17.3v-24.2h17.1V118.4z"/>
	<path class="st1" d="M128.9,39.3h-0.4c-5.7,0-10.4,4.8-10.4,10.8v11.6l10.7-7.9l10.7,7.9V50.1C139.3,44.1,134.6,39.3,128.9,39.3z"
		/>
	<path class="st1" d="M83.5,0v87.5l27.1-20.3v-23l-4.9-3.9l23-17.3l23,17.3l-4.9,3.9v23l27.1,20.3V0H83.5z"/>
</g>
</svg>
