<?xml version="1.0" encoding="utf-8"?>
<!-- Generator: Adobe Illustrator 23.0.3, SVG Export Plug-In . SVG Version: 6.00 Build 0)  -->
<svg version="1.1" id="Слой_1" xmlns="http://www.w3.org/2000/svg" xmlns:xlink="http://www.w3.org/1999/xlink" x="0px" y="0px"
	 viewBox="0 0 453 75.8" style="enable-background:new 0 0 453 75.8;" xml:space="preserve">
<style type="text/css">
	.st0{fill:#13202B;}
</style>
<g>
	<path class="st0" d="M129.8,23c6.8,0,11,2.6,11,8.1c0,3.7-2,6-4.8,6.9c3.1,0.9,6.2,3.3,6.2,7.9c0,7.2-6.9,8.9-12.6,8.9h-13.8V23
		H129.8z M130,41.1h-7.2v8.3h6.8c3,0,5.8-0.7,5.8-4.1C135.3,41.9,132.6,41.1,130,41.1z M129.3,28.6h-6.5V36h6.8
		c2.6,0,4.5-1.2,4.5-3.7C134.2,29.7,132.3,28.6,129.3,28.6z"/>
	<path class="st0" d="M147.4,54.8l13-31.8h7.3l13,31.8h-7.1l-2.4-6h-14.5l-2.4,6H147.4z M159,43.3h10.3l-4.5-11.4
		c-0.3-0.7-0.4-1.3-0.7-2.5c-0.3,1.2-0.4,1.8-0.8,2.5L159,43.3z"/>
	<path class="st0" d="M188.9,54.8V23H202c6.2,0,12.7,2.4,12.7,10.3c0,5.5-3.1,8.3-6.9,9.4l9.6,12h-7.9l-8.6-11.1h-5v11.1H188.9z
		 M195.7,38.1h6.5c2.9,0,5.4-1.3,5.4-4.5c0-3.3-2.5-4.5-5.4-4.5h-6.5V38.1z"/>
	<path class="st0" d="M225.6,54.8V23h6.4l14.8,20.8c-0.1-1.3-0.1-2.9-0.1-4.3V23.1h6.8V55h-6.4l-14.8-20.8c0.1,1.3,0.1,2.9,0.1,4.3
		v16.4H225.6z"/>
	<path class="st0" d="M278.9,23c6.8,0,11,2.6,11,8.1c0,3.7-2,6-4.8,6.9c3.1,0.9,6.2,3.3,6.2,7.9c0,7.2-6.9,8.9-12.6,8.9h-13.8V23
		H278.9z M278.9,41.1h-7.2v8.3h6.8c3,0,5.8-0.7,5.8-4.1C284.2,41.9,281.6,41.1,278.9,41.1z M278.2,28.6h-6.5V36h6.8
		c2.6,0,4.5-1.2,4.5-3.7C283.1,29.7,281.2,28.6,278.2,28.6z"/>
	<path class="st0" d="M300.8,54.8V23h13.1c6.2,0,12.7,2.4,12.7,10.3c0,5.5-3.1,8.3-6.9,9.4l9.6,12h-7.9l-8.6-11.1h-5v11.1H300.8z
		 M307.6,38.1h6.5c2.9,0,5.4-1.3,5.4-4.5c0-3.3-2.5-4.5-5.4-4.5h-6.5V38.1z"/>
	<path class="st0" d="M344.2,23v31.8h-6.8V23H344.2z"/>
	<path class="st0" d="M367.5,23c11.4,0,16.8,6.7,16.8,16c0,9.3-5.4,16-16.8,16h-11.9V23.1h11.9V23z M367.5,29h-5.1v19.9h5.1
		c6.3,0,9.7-3.4,9.7-10C377.2,32.4,373.8,29,367.5,29z"/>
	<path class="st0" d="M409.6,22.3c3.4,0,6.8,0.8,9.8,2.1V31c-2.4-1.6-5.6-2.5-8.9-2.5c-5.6,0-11.3,3-11.3,10.5
		c0,8.5,6.3,10.6,10.9,10.6c1.3,0,2.5-0.3,3.5-0.7V37.5h6.5v15.8c-3.1,1.3-6.8,2.1-10.3,2.1c-8.9,0-17.5-4.8-17.5-16.6
		C392.2,27.3,400.8,22.3,409.6,22.3z"/>
	<path class="st0" d="M452.8,23v6h-15.6v6.8h14.3v6h-14.3v7.1h15.8v6h-22.7V23.1h22.4V23z"/>
	<path class="st0" d="M39.3,35.1H39c-5,0-9,4.2-9,9.3v10.1l9.3-6.9l9.3,6.9V44.4C48.4,39.2,44.3,35.1,39.3,35.1z"/>
	<path class="st0" d="M0.1,1v75.8l23.4-17.5v-20l-4.3-3.4l20-15.1l19.9,15.1l-4.3,3.4v20l23.6,17.5V1H0.1z"/>
</g>
</svg>
