<?xml version="1.0" encoding="utf-8"?>
<!-- Generator: Adobe Illustrator 23.0.3, SVG Export Plug-In . SVG Version: 6.00 Build 0)  -->
<svg version="1.1" id="Слой_1" xmlns="http://www.w3.org/2000/svg" xmlns:xlink="http://www.w3.org/1999/xlink" x="0px" y="0px"
	 viewBox="0 0 453 75.8" style="enable-background:new 0 0 453 75.8;" xml:space="preserve">
<style type="text/css">
	.st0{fill:#FFFFFF;}
	.st1{fill:#FF4339;}
</style>
<g>
	<path class="st0" d="M129.7,22c6.8,0,11,2.6,11,8.1c0,3.7-2,6-4.8,6.9c3.1,0.9,6.2,3.3,6.2,7.9c0,7.2-6.9,8.9-12.6,8.9h-13.7V22
		H129.7z M129.9,40h-7.2v8.2h6.8c3,0,5.8-0.7,5.8-4.1C135.2,40.8,132.6,40,129.9,40z M129.2,27.6h-6.5v7.3h6.8
		c2.6,0,4.5-1.2,4.5-3.7C134.1,28.6,132.2,27.6,129.2,27.6z"/>
	<path class="st0" d="M147.4,53.8l13-31.8h7.3l13,31.8h-7.1l-2.4-6h-14.5l-2.4,6H147.4z M158.9,42.3h10.3l-4.5-11.4
		c-0.3-0.7-0.4-1.3-0.7-2.5c-0.3,1.2-0.4,1.8-0.8,2.5L158.9,42.3z"/>
	<path class="st0" d="M188.8,53.8V22h13.1c6.2,0,12.7,2.4,12.7,10.3c0,5.5-3.1,8.2-6.9,9.4l9.6,12h-7.9l-8.6-11.1h-5v11.1H188.8z
		 M195.6,37h6.5c2.9,0,5.4-1.3,5.4-4.5c0-3.3-2.5-4.5-5.4-4.5h-6.5V37z"/>
	<path class="st0" d="M225.5,53.8V22h6.4l14.8,20.8c-0.1-1.3-0.1-2.9-0.1-4.3V22.1h6.8v31.8h-6.4L232.1,33c0.1,1.3,0.1,2.9,0.1,4.3
		v16.4h-6.8V53.8z"/>
	<path class="st0" d="M278.7,22c6.8,0,11,2.6,11,8.1c0,3.7-2,6-4.8,6.9c3.1,0.9,6.2,3.3,6.2,7.9c0,7.2-6.9,8.9-12.6,8.9h-13.6V22
		H278.7z M278.7,40h-7.2v8.2h6.8c3,0,5.8-0.7,5.8-4.1C284.2,40.8,281.5,40,278.7,40z M278.1,27.6h-6.5v7.3h6.8
		c2.6,0,4.5-1.2,4.5-3.7C282.9,28.6,281.1,27.6,278.1,27.6z"/>
	<path class="st0" d="M300.6,53.8V22h13.1c6.2,0,12.7,2.4,12.7,10.3c0,5.5-3.1,8.2-6.9,9.4l9.6,12h-7.9l-8.6-11.1h-5v11.1H300.6z
		 M307.4,37h6.5c2.9,0,5.4-1.3,5.4-4.5c0-3.3-2.5-4.5-5.4-4.5h-6.5V37z"/>
	<path class="st0" d="M344.1,22v31.8h-6.8V22H344.1z"/>
	<path class="st0" d="M367.4,22c11.4,0,16.8,6.7,16.8,16c0,9.3-5.4,16-16.8,16h-11.9V22.1h11.9V22z M367.4,28h-5.1v19.9h5.1
		c6.3,0,9.7-3.4,9.7-10C377.1,31.4,373.7,28,367.4,28z"/>
	<path class="st0" d="M409.4,21.3c3.4,0,6.8,0.8,9.8,2.1v6.5c-2.4-1.6-5.6-2.5-8.9-2.5c-5.6,0-11.3,3-11.3,10.5
		c0,8.5,6.3,10.6,10.9,10.6c1.3,0,2.5-0.3,3.5-0.7V36.5h6.5v15.8c-3.1,1.3-6.8,2.1-10.3,2.1c-8.9,0-17.5-4.8-17.5-16.6
		C392,26.3,400.6,21.3,409.4,21.3z"/>
	<path class="st0" d="M452.7,22v6h-15.6v6.8h14.3v6h-14.3v7.1H453v6h-22.6V22.1h22.4V22z"/>
	<path class="st1" d="M39.3,34h-0.4c-5,0-9,4.2-9,9.3v10.1l9.3-6.9l9.3,6.9V43.3C48.4,38.2,44.3,34,39.3,34z"/>
	<path class="st1" d="M0,0v75.8l23.4-17.5v-20l-4.3-3.4l20-15.1l20,15.1l-4.3,3.4v20l23.4,17.5V0H0z"/>
</g>
</svg>
